PathFileType	4	(X/Y/Z)	D:\TRACE\v60_Jaco2_6-2-23\JustArmDRS_Motion3_5-v60.trc
DataRate	CameraRate	NumFrames	NumMarkers	Units	OrigDataRate	OrigDataStartFrame	OrigNumFrames
100.00	100.00	      35	9	mm	100.00	4376	      7000
Frame#	Time	front left toe			Front right toe			aft left toe			aft right toe			Arm			FL body			FR body			AL Body			AR Body			
		X1	Y1	Z1	X2	Y2	Z2	X3	Y3	Z3	X4	Y4	Z4	X5	Y5	Z5	X6	Y6	Z6	X7	Y7	Z7	X8	Y8	Z8	X9	Y9	Z9	

4376	43.750	-147.38092	-1.68185	-245.15695	251.70464	1.49760	-179.27002	-235.85583	47.41316	390.91403	173.82811	45.05334	406.10550	94.26620	1031.16895	-698.84399	-7.36947	549.59747	-358.54977	149.08322	546.81934	-337.36426	-124.12395	631.63287	575.04529	26.19861	619.58972	595.53558	
4377	43.760	-147.30937	-1.51669	-245.07991	251.65189	1.65304	-179.17909	-235.81065	47.21520	391.02066	173.91945	44.81807	406.32944	94.54209	1031.62231	-698.31836	-7.20901	549.74475	-358.42859	149.23654	546.85590	-337.17181	-123.61876	631.20251	575.31891	26.42062	619.32843	595.73694	
4378	43.770	-147.16249	-1.36498	-244.93440	251.69627	1.78930	-179.14832	-236.08495	47.21122	391.05515	173.98218	44.37153	406.40979	94.75839	1031.84534	-697.95087	-7.00575	549.84320	-358.10797	149.27002	546.90161	-337.03366	-123.02048	630.79755	575.57458	26.56114	619.08496	596.05585	
4379	43.780	-147.06339	-1.17493	-244.75500	251.77831	2.07758	-179.01573	-236.15268	46.89146	391.16284	174.06438	43.74233	406.63773	94.93478	1032.07166	-697.58655	-6.96016	550.06738	-357.94940	149.44939	546.98322	-336.89059	-123.06315	630.58960	575.70831	26.73570	618.82507	596.34198	
4380	43.790	-147.01715	-0.92552	-244.57538	251.88705	2.32745	-178.92651	-235.92471	46.37376	391.40820	174.17429	43.54235	406.74426	95.03781	1032.20630	-697.22845	-7.41668	550.63062	-358.30356	149.67661	547.08441	-336.72522	-122.97681	630.29852	575.89447	27.09671	618.43848	596.60327	
4381	43.800	-147.09087	-0.66344	-244.40465	252.04105	2.53978	-178.85735	-236.05977	46.17042	391.66122	174.12119	43.23864	406.96921	95.21467	1032.80225	-696.86414	-7.27169	550.74323	-358.16211	149.91652	547.28400	-336.48685	-122.96431	630.08173	576.29291	27.31294	618.22345	596.79224	
4382	43.810	-147.09859	-0.38151	-244.28177	252.04083	2.64178	-178.79991	-235.70854	45.56099	391.85962	173.98703	43.06518	407.06528	95.30817	1033.17725	-696.51141	-7.09751	550.87518	-357.85324	150.22928	547.45599	-336.21234	-122.81110	629.94281	576.55591	27.29529	618.13672	597.00317	
4383	43.820	-147.36945	0.27555	-244.33469	252.07938	2.83954	-178.64861	-235.64066	45.10946	392.00467	173.73254	42.50259	407.03156	95.55614	1033.43762	-696.12183	-6.78280	551.09045	-357.53320	150.27501	547.58319	-336.06433	-122.88013	629.73090	576.73572	27.20181	617.97137	597.11548	
4384	43.830	-147.02364	-0.02445	-243.86784	252.06177	2.96350	-178.60944	-235.85799	44.97633	392.10736	173.94431	42.11937	407.17844	95.64230	1033.60144	-695.95667	-6.57598	551.19696	-357.22757	150.36270	547.68860	-335.87323	-122.82609	629.48590	576.92975	26.98032	617.62177	597.37640	
4385	43.840	-147.18892	0.60456	-243.95482	251.92581	3.07704	-178.47406	-235.82095	44.68520	392.16809	174.06879	41.76390	407.48880	95.85970	1033.85803	-695.92389	-6.06268	551.11682	-356.73322	150.49648	547.87994	-335.67844	-122.69551	629.26776	577.04541	27.11821	617.25464	597.48181	
4386	43.850	-147.14648	0.94137	-243.84557	251.95555	3.29880	-178.13792	-235.81035	44.39107	392.12463	174.07727	41.48452	407.63251	96.35049	1034.15955	-695.83313	-6.44760	551.65900	-357.00647	150.58391	548.18835	-335.59991	-122.56586	628.97308	577.21564	27.35185	616.81403	597.68860	
4387	43.860	-147.17300	1.39387	-243.70976	251.93994	3.72397	-177.86952	-235.80350	43.86430	392.32843	174.00041	41.01674	407.79834	96.79288	1034.73071	-695.54730	-6.15888	551.75842	-356.47275	150.48410	548.56006	-335.56836	-122.50694	628.74103	577.43243	27.42418	616.49084	597.92218	
4388	43.870	-147.24854	1.79981	-243.63710	251.89188	4.06661	-177.56386	-236.11075	43.47230	392.58157	173.77173	40.27862	407.92661	96.96420	1035.06421	-695.35022	-6.13059	551.92798	-356.38513	150.56609	548.77881	-335.27420	-122.36420	628.32196	577.65063	27.36015	616.21411	598.19360	
4389	43.880	-147.25200	1.74219	-243.27092	251.79062	4.61971	-177.15979	-236.17053	42.95041	392.83459	173.58168	39.99251	408.05219	97.00184	1035.25488	-695.16339	-6.10734	552.13342	-356.12543	150.56940	548.96198	-335.09863	-122.39738	628.02838	577.82440	27.42463	616.00671	598.42462	
4390	43.890	-147.22844	1.79037	-243.20755	251.64963	4.77122	-177.08273	-236.35020	42.60520	393.04620	173.35004	39.74811	408.26837	97.29686	1035.32837	-695.01965	-6.00416	552.40405	-355.98019	150.47986	549.03046	-334.97134	-122.37019	627.71954	578.01569	27.60226	615.75903	598.61780	
4391	43.900	-147.71805	2.46932	-243.34351	251.47574	4.83062	-177.19437	-236.53200	42.28506	393.21750	173.10268	39.24728	408.57675	97.27233	1035.61145	-694.93225	-5.98803	552.65454	-355.88269	150.55060	549.10046	-334.71109	-122.43641	627.51276	578.33075	27.69159	615.33850	598.80591	
4392	43.910	-147.96445	2.93001	-243.09967	251.39131	5.07421	-176.96385	-236.66014	41.81798	393.49832	172.67616	38.32595	408.57199	97.47820	1035.85962	-694.72430	-6.18582	553.10297	-355.85449	151.02232	549.30310	-334.61432	-122.50405	627.37994	578.68805	27.76387	615.05951	599.09509	
4393	43.920	-148.18039	3.25132	-242.94365	251.06862	5.05266	-177.08331	-236.79507	41.37004	393.63837	172.38869	37.71967	408.57211	97.84222	1036.22241	-694.40253	-6.29360	553.39880	-355.56442	151.07120	549.46002	-334.48782	-122.51341	627.24622	578.85187	27.62410	614.89813	599.23535	
4394	43.930	-147.70943	2.32489	-241.70505	250.83022	5.41347	-176.93913	-236.99388	41.02077	393.66464	172.51506	37.53076	408.88409	98.03457	1036.49072	-694.09576	-6.28005	553.64862	-355.33026	151.10551	549.74103	-334.24622	-122.48056	627.03516	579.12988	27.46273	614.60626	599.44708	
4395	43.940	-148.63242	3.71432	-242.20186	250.83409	5.72063	-176.53609	-237.24638	40.39204	393.77353	172.42932	37.35624	408.99918	98.07988	1036.72937	-693.72357	-6.74280	554.08807	-355.67328	150.47629	550.24518	-333.96823	-122.12476	626.72644	579.37695	27.36904	614.32385	599.67645	
4396	43.950	-148.91478	4.26602	-242.39174	250.46715	6.04784	-176.23407	-237.56448	40.22637	394.12305	171.93442	36.97336	409.17365	98.09307	1037.08582	-693.15186	-6.75030	554.45087	-355.34470	150.32689	550.48163	-333.91833	-122.04473	626.42529	579.52484	27.51342	614.03290	600.03223	
4397	43.960	-149.03090	4.70063	-242.23845	250.18242	6.25853	-176.01178	-237.92050	39.83063	394.27298	172.04668	36.15528	409.55573	98.05518	1037.66785	-692.66357	-6.75067	554.77667	-355.09888	150.13705	550.73328	-333.77890	-122.09502	625.85547	579.72113	27.57084	613.76001	600.31561	
4398	43.970	-149.11888	5.04496	-241.99687	249.74100	6.25673	-175.98238	-238.08434	39.45341	394.36111	172.03200	35.62537	409.79526	98.13233	1038.44385	-692.12628	-6.83057	555.10217	-354.87839	150.08636	550.97888	-333.59637	-122.20291	625.52454	579.94684	27.79827	613.07452	600.51154	
4399	43.980	-149.35187	5.41250	-241.70966	249.26695	6.45711	-175.85991	-238.11546	38.86157	394.43414	171.62247	35.28997	410.03116	98.47358	1038.87561	-691.53290	-6.82028	555.47797	-354.75821	150.68080	551.19507	-333.56137	-122.31099	625.24298	580.05109	27.74007	612.65924	600.62830	
4400	43.990	-149.40530	5.61017	-241.52701	248.98183	6.64067	-175.78769	-238.33122	38.13104	394.94290	171.55229	34.95103	410.32870	98.39635	1039.61194	-690.47845	-6.80921	555.77979	-354.52267	150.13400	551.65417	-333.08963	-122.32862	624.87842	580.51306	27.59118	612.20184	600.81293	
4401	44.000	-149.65639	5.94373	-241.35211	249.04813	7.04648	-175.68799	-238.48235	37.59457	395.07391	171.35880	34.28477	410.37775	98.35719	1040.25000	-690.01917	-6.93007	556.21973	-354.26157	150.31387	552.02405	-333.17184	-122.42834	624.39160	580.92725	27.19489	612.04053	601.00671	
4402	44.010	-150.11119	6.48962	-241.13074	248.88710	7.43298	-175.40227	-238.46384	36.91395	395.10098	170.67012	33.45085	410.52505	98.48003	1040.68201	-689.40283	-6.91458	556.44617	-354.03815	149.69746	552.54834	-332.81076	-122.57063	623.90558	581.01880	27.36185	611.15240	601.32800	
4403	44.020	-150.53516	6.97413	-240.95212	248.58650	7.69926	-175.11121	-239.17734	36.77348	395.26089	170.28296	32.82853	410.77765	98.57685	1041.27563	-688.16284	-6.69061	556.48340	-353.46201	149.67896	552.70294	-332.67267	-122.41192	623.54022	581.39899	27.37575	610.84436	601.58716	
4404	44.030	-150.87833	7.49304	-240.80418	248.41266	7.90463	-174.77029	-239.47798	36.23826	395.59213	169.98178	32.58854	410.92502	98.73188	1041.84290	-687.47113	-7.02809	557.02551	-353.33102	149.52771	553.02063	-332.29681	-122.45264	623.20996	581.67108	27.25700	610.48895	601.92938	
4405	44.040	-151.15399	7.94850	-240.60973	247.99364	8.34251	-174.58119	-239.81126	35.71024	395.80606	169.77150	31.99086	411.08557	97.80489	1042.44653	-686.63513	-7.28380	557.55518	-353.26303	149.41058	553.19818	-332.09644	-122.38109	622.77991	581.78864	27.02139	610.27521	602.06177	
4406	44.050	-151.23849	8.21471	-240.47353	247.83716	8.69780	-174.43060	-240.17395	35.11174	395.93948	169.38257	31.42387	411.43256	97.78378	1042.89795	-685.53284	-7.39899	557.80389	-352.92075	149.36755	553.35687	-331.87119	-122.72173	622.22333	582.12909	27.19183	609.25397	602.48364	
4407	44.060	-151.57640	8.57285	-240.31894	247.43175	9.15067	-174.34361	-240.39282	34.49971	396.34991	169.17838	30.97236	411.62360	97.45930	1043.40405	-684.33447	-7.52808	558.16052	-352.58047	148.90082	553.91156	-331.82593	-122.95019	621.63098	582.72760	27.27686	608.74109	602.63007	
4408	44.070	-151.89204	9.02329	-240.05475	246.87701	9.27243	-174.37141	-240.29361	33.96505	396.49017	169.07320	30.45625	411.99069	97.44346	1044.01184	-683.22571	-7.77234	558.43152	-352.34341	149.25560	554.24365	-331.68234	-122.83537	621.21167	582.95477	27.03496	608.43542	603.10449	
4409	44.080	-152.10486	9.15731	-239.97476	246.62880	9.49536	-174.15088	-240.71028	33.26478	396.83237	168.88194	29.67369	412.18951	97.28030	1044.57288	-681.82367	-8.13771	558.77423	-352.11615	149.05626	554.50256	-331.35046	-123.10651	620.42181	583.25781	26.82269	607.58331	603.39606	
4410	44.090	-152.82152	9.84903	-239.61765	246.46663	9.83188	-173.75894	-241.30997	32.81316	397.00226	168.49445	29.12370	412.31046	97.01391	1045.23987	-680.39148	-8.14708	558.92737	-351.70129	148.27933	554.80084	-330.93240	-123.08818	620.03406	583.42743	26.72754	607.00470	603.72693	
